<svg width="723" height="793" viewBox="0 0 723 793" fill="none" xmlns="http://www.w3.org/2000/svg">
<path fill-rule="evenodd" clip-rule="evenodd" d="M961.584 302.383C1015.31 395.431 983 511.951 962.753 610.79C944.406 700.351 906.378 780.083 850.99 842.261C799.773 899.756 728.355 922.938 659.425 951.299C590.16 979.798 522.969 1024.76 445.703 1009.02C367.948 993.172 304.49 922.093 238.213 865.469C169.462 806.732 91.0644 756.151 49.849 670.816C7.54584 583.229 11.5266 485.062 8.75951 390.397C5.73398 286.889 -19.5889 167.28 32.9104 91.3276C85.4205 15.3599 188.17 13.5881 276.334 3.2909C351.521 -5.49067 428.16 9.04657 504.229 36.2794C574.372 61.3904 632.767 115.964 699.467 154.773C787.882 206.215 906.338 206.695 961.584 302.383Z" fill="url(#paint0_linear_9_36)"/>
<defs>
<linearGradient id="paint0_linear_9_36" x1="948.94" y1="265.858" x2="34.7604" y2="635.279" gradientUnits="userSpaceOnUse">
<stop stop-color="#D5E6FF"/>
<stop offset="0.96875" stop-color="#C5DCFF" stop-opacity="0.5"/>
<stop offset="1" stop-color="#C4C4C4" stop-opacity="0"/>
</linearGradient>
</defs>
</svg>
