<svg width="50" height="50" viewBox="0 0 50 50" fill="none" xmlns="http://www.w3.org/2000/svg">
<g clip-path="url(#clip0_23_77)">
<path d="M41.6668 45.8333H8.3335V41.6667C8.3335 38.904 9.43096 36.2545 11.3845 34.301C13.338 32.3475 15.9875 31.25 18.7502 31.25H31.2502C34.0128 31.25 36.6624 32.3475 38.6159 34.301C40.5694 36.2545 41.6668 38.904 41.6668 41.6667V45.8333ZM25.0002 27.0833C23.3586 27.0833 21.7332 26.76 20.2166 26.1318C18.7001 25.5037 17.3221 24.5829 16.1613 23.4222C15.0006 22.2614 14.0799 20.8835 13.4517 19.3669C12.8235 17.8503 12.5002 16.2249 12.5002 14.5833C12.5002 12.9418 12.8235 11.3164 13.4517 9.7998C14.0799 8.28323 15.0006 6.90524 16.1613 5.74451C17.3221 4.58378 18.7001 3.66303 20.2166 3.03485C21.7332 2.40667 23.3586 2.08334 25.0002 2.08334C28.3154 2.08334 31.4948 3.4003 33.839 5.74451C36.1832 8.08871 37.5002 11.2681 37.5002 14.5833C37.5002 17.8985 36.1832 21.078 33.839 23.4222C31.4948 25.7664 28.3154 27.0833 25.0002 27.0833Z" fill="white"/>
</g>
<defs>
<clipPath id="clip0_23_77">
<rect width="50" height="50" fill="white"/>
</clipPath>
</defs>
</svg>
